<?xml version="1.0" standalone="no"?>
<!DOCTYPE svg PUBLIC "-//W3C//DTD SVG 1.1//EN" "http://www.w3.org/Graphics/SVG/1.1/DTD/svg11.dtd" >
<svg xmlns="http://www.w3.org/2000/svg" xmlns:xlink="http://www.w3.org/1999/xlink" version="1.1">
<metadata></metadata>
<defs>
<font id="centralesansxbold" horiz-adv-x="1245" >
<font-face units-per-em="2048" ascent="1638" descent="-410" />
<missing-glyph horiz-adv-x="542" />
<glyph unicode="&#xfb01;" horiz-adv-x="1300" d="M10 819v246h191v74q8 188 147 284.5t334 96.5q205 0 369 -88l-93 -207q-127 47 -229 47q-92 0 -136 -45t-44 -111v-51h627v-1065h-349v819h-278v-819h-348v819h-191z" />
<glyph unicode="&#xfb02;" horiz-adv-x="1411" d="M10 819v246h191v35q0 184 136 302t363 118q213 0 356.5 -103.5t143.5 -312.5v-791q0 -68 82 -67q39 0 88 6l10 -252q-123 -20 -223 -20q-166 0 -235.5 70.5t-69.5 238.5v813q0 86 -48 120.5t-104 34.5q-33 0 -63.5 -8t-59 -44t-28.5 -93v-47h160v-246h-160v-819h-348v819 h-191z" />
<glyph unicode="&#xfb03;" horiz-adv-x="1927" d="M10 819v246h191v74q0 193 82 287t284 94q74 0 164 -21l-35 -250q-47 6 -69 6q-39 0 -58.5 -19t-19.5 -75v-96h278v57q0 145 73 241.5t177.5 134.5t231.5 38q205 0 368 -88l-88 -217q-123 43 -231 43q-94 0 -138 -40t-44 -104v-65h626v-1065h-348v819h-278v-819h-349v819 h-278v-819h-348v819h-191z" />
<glyph unicode="&#xfb04;" horiz-adv-x="2039" d="M10 819v246h191v74q0 193 82 287t284 94q74 0 164 -21l-35 -248q-47 6 -69 6q-39 0 -58.5 -19t-19.5 -75v-98h280v51q0 184 136.5 302t363.5 118q213 0 356.5 -103.5t143.5 -312.5v-807q0 -68 82 -67q39 0 88 6l10 -252q-123 -20 -223 -20q-166 0 -235.5 70.5 t-69.5 238.5v829q0 86 -48.5 121t-103.5 35t-103 -35t-48 -121v-53h159v-246h-159v-819h-349v819h-280v-819h-348v819h-191z" />
<glyph horiz-adv-x="0" />
<glyph horiz-adv-x="0" />
<glyph horiz-adv-x="682" />
<glyph unicode="&#xd;" horiz-adv-x="681" />
<glyph unicode=" "  horiz-adv-x="542" />
<glyph unicode="&#x09;" horiz-adv-x="542" />
<glyph unicode="&#xa0;" horiz-adv-x="542" />
<glyph unicode="!" horiz-adv-x="661" d="M121 1434h420l-66 -945h-285zM141 141q0 88 50.5 130t136.5 42t136 -42t50 -130q0 -170 -186.5 -170t-186.5 170z" />
<glyph unicode="&#x22;" horiz-adv-x="1114" d="M131 1434h350l-131 -643h-198zM633 1434h350l-133 -643h-199z" />
<glyph unicode="#" horiz-adv-x="1638" d="M82 295l55 293h223l46 243h-228l51 291h230l57 312h297l-55 -312h291l55 312h297l-55 -312h223l-53 -291h-222l-43 -243h222l-52 -293h-223l-51 -295h-295l51 295h-293l-51 -295h-307l53 295h-223zM664 588h290l43 243h-290z" />
<glyph unicode="$" horiz-adv-x="1214" d="M74 1004q0 199 115.5 316.5t326.5 141.5v197h195v-197q209 -16 409 -112l-108 -281q-203 106 -371 107q-182 0 -182 -123q0 -29 7 -51.5t27.5 -40t36 -29.5t53.5 -24.5t56 -18.5t69.5 -18.5t71.5 -18.5q188 -51 283.5 -146.5t95.5 -273.5q0 -389 -448 -457v-204h-195v200 q-229 18 -422 105l92 280q66 -33 182.5 -67.5t219.5 -34.5q184 0 184 125q0 29 -11 51.5t-26.5 36.5t-48.5 27.5t-59.5 20.5t-78.5 21.5t-87 24.5q-180 55 -283.5 152.5t-103.5 290.5z" />
<glyph unicode="%" horiz-adv-x="1746" d="M74 1112q0 166 95 258t255 92q154 0 247 -90t93 -254t-95.5 -255t-254.5 -91q-156 0 -248 90t-92 250zM326 0l823 1434h268l-815 -1434h-276zM336 1116q0 -125 84 -125q33 0 57.5 30t24.5 95q0 123 -82 123q-84 0 -84 -123zM985 311q0 166 95 258.5t255 92.5 q154 0 247 -90.5t93 -254t-95 -255t-255 -91.5q-156 0 -248 90.5t-92 249.5zM1247 315q0 -125 84 -125q33 0 57.5 30t24.5 95q0 123 -82 123q-84 0 -84 -123z" />
<glyph unicode="&#x26;" horiz-adv-x="1435" d="M84 375q0 233 274 411q-53 61 -77.5 96.5t-48 96.5t-23.5 131q0 170 110.5 261t274.5 91t281.5 -91t117.5 -259q0 -125 -64.5 -210t-176.5 -154l217 -256q80 113 159 290l250 -125q-102 -240 -223 -389l227 -268h-364l-68 80q-166 -109 -368 -109q-217 0 -357.5 98.5 t-140.5 305.5zM408 426q0 -82 56 -123t138 -41q88 0 164 39l-254 303q-104 -80 -104 -178zM508 1096q0 -41 18.5 -75t65.5 -87q109 84 108 164q0 47 -29.5 72.5t-64.5 25.5q-45 0 -71.5 -28.5t-26.5 -71.5z" />
<glyph unicode="'" horiz-adv-x="612" d="M131 1434h350l-131 -643h-198z" />
<glyph unicode="(" horiz-adv-x="808" d="M102 508q0 612 299 991h367q-129 -190 -178 -299q-135 -293 -135 -692q0 -188 26.5 -345t78.5 -279t90 -186.5t100 -154.5q12 -18 18 -26h-367q-299 379 -299 991z" />
<glyph unicode=")" horiz-adv-x="808" d="M41 -483q129 190 178 299q135 293 135 692q0 188 -26.5 345t-78.5 278.5t-90 186t-100 155.5q-12 18 -18 26h367q299 -379 299 -991t-299 -991h-367z" />
<glyph unicode="*" horiz-adv-x="907" d="M100 1106l219 86l-219 82l107 182l182 -151l-37 235h205l-39 -235l184 151l107 -182l-221 -82l221 -86l-107 -182l-184 151l39 -231h-205l37 231l-182 -151z" />
<glyph unicode="+" horiz-adv-x="1175" d="M82 563v258h362v387h267v-387h383v-258h-383v-366h-267v366h-362z" />
<glyph unicode="," horiz-adv-x="598" d="M115 116.5q0 73.5 48 121t130 47.5q90 0 144.5 -61.5t54.5 -170.5q0 -236 -275 -366l-72 114q154 74 177 187q-18 -23 -60 -23q-70 0 -108.5 39t-38.5 112.5z" />
<glyph unicode="-" horiz-adv-x="1019" d="M125 408v258h770v-258h-770z" />
<glyph unicode="." horiz-adv-x="579" d="M113 131q0 78 49 123t125 45q80 0 130 -45t50 -123q0 -82 -49 -125t-131 -43q-78 0 -126 43t-48 125z" />
<glyph unicode="/" horiz-adv-x="995" d="M-53 -348l762 1847h286l-764 -1847h-284z" />
<glyph unicode="0" horiz-adv-x="1478" d="M94 713q0 352 181.5 550.5t467.5 198.5q283 0 462 -195.5t179 -545.5q0 -352 -180 -551t-465 -199q-287 0 -466 195.5t-179 546.5zM467 716.5q0 -448.5 276 -448.5q268 0 269 445q0 453 -272.5 452.5t-272.5 -449z" />
<glyph unicode="1" horiz-adv-x="868" d="M-20 1200l456 234h266v-1434h-348v1071l-250 -127z" />
<glyph unicode="2" horiz-adv-x="1214" d="M49 1317q246 145 545 145q238 0 386 -129t148 -340q0 -49 -10 -95t-19 -78t-41 -76t-44.5 -62t-62.5 -65.5t-61 -57.5t-73 -63l-223 -193h536v-303h-1021v279l497 434q82 78 116 132t34 124q0 84 -51.5 140t-165.5 56q-172 0 -377 -114z" />
<glyph unicode="3" horiz-adv-x="1263" d="M80 90l108 262q184 -84 347 -84q264 0 264 174q0 176 -307 176h-113v263h117q61 0 102 4t84 15t64.5 39t21.5 71q0 80 -70.5 114.5t-165.5 34.5q-156 0 -315 -65l-96 266q33 16 89 35.5t172 43t222 23.5q240 0 381 -107.5t141 -293.5q0 -233 -215 -322 q115 -29 187.5 -124t72.5 -228q0 -203 -167.5 -309.5t-436.5 -106.5q-289 0 -487 119z" />
<glyph unicode="4" horiz-adv-x="1308" d="M49 291v258l713 885h325v-873h146v-270h-146v-291h-348v291h-690zM399 561h340v410z" />
<glyph unicode="5" horiz-adv-x="1253" d="M61 113l123 264q61 -35 100.5 -54.5t117 -41t155.5 -21.5q115 0 187.5 56.5t72.5 164.5q0 98 -55 154.5t-164 56.5q-123 0 -229 -84l-228 137l49 689h920v-291h-655l-13 -242q100 47 271 47q229 0 352 -131t123 -321q0 -231 -148.5 -378t-427.5 -147q-322 0 -551 142z " />
<glyph unicode="6" horiz-adv-x="1402" d="M94 694q0 395 217 600q174 168 463 168q326 0 533 -145l-133 -244q-160 98 -357 98q-162 0 -250 -88q-90 -84 -108 -256q0 -4 -1 -14t-1 -16q121 152 377 151q215 0 347 -121.5t132 -349.5q0 -242 -166 -374t-420 -132q-360 0 -518 248q-115 180 -115 475zM485 465 q0 -100 58.5 -160.5t161.5 -60.5q106 0 164.5 61.5t58.5 163.5q0 94 -52 155.5t-169 61.5q-111 0 -166.5 -62.5t-55.5 -158.5z" />
<glyph unicode="7" horiz-adv-x="1144" d="M66 1120v314h1032v-287l-492 -1147h-413l520 1120h-647z" />
<glyph unicode="8" horiz-adv-x="1355" d="M88 397q0 262 287 359q-231 78 -232 313q0 186 148.5 289.5t386 103.5t386 -104.5t148.5 -288.5q0 -233 -231 -313q287 -98 287 -363q0 -209 -162 -315.5t-424 -106.5t-428 106.5t-166 319.5zM446 422q0 -70 41 -116t89.5 -60.5t101.5 -14.5t101 14.5t89 60.5t41 116 q0 94 -65.5 142t-165.5 48t-166 -48t-66 -142zM477 1030q0 -72 52.5 -114t148.5 -42t148.5 42t52.5 114t-54.5 115t-146.5 43t-146.5 -43t-54.5 -115z" />
<glyph unicode="9" horiz-adv-x="1476" d="M131 956q0 240 169 373t425 133q393 0 543 -307q82 -166 82 -416q0 -395 -217 -600q-174 -168 -463 -168q-326 0 -533 146l133 243q160 -98 357 -98q162 0 250 88q90 84 108 256q0 4 1 14.5t1 16.5q-123 -152 -377 -152q-215 0 -347 122t-132 349zM516 965 q0 -94 52.5 -155.5t168.5 -61.5q111 0 166 62t55 159q0 100 -58.5 160.5t-160.5 60.5q-106 0 -164.5 -61.5t-58.5 -163.5z" />
<glyph unicode=":" horiz-adv-x="608" d="M127 131q0 78 49 123t125 45q80 0 130 -45t50 -123q0 -82 -49 -125t-131 -43q-78 0 -126 43t-48 125zM127 801q0 78 49 123t125 45q80 0 130 -45t50 -123q0 -82 -49 -125t-131 -43q-78 0 -126 43t-48 125z" />
<glyph unicode=";" horiz-adv-x="641" d="M135 116.5q0 73.5 48 121t130 47.5q90 0 144.5 -61.5t54.5 -170.5q0 -236 -274 -366l-72 114q150 74 176 187q-18 -23 -59 -23q-70 0 -109 39t-39 112.5zM145 799q0 78 49 123t125 45q80 0 130.5 -45t50.5 -123q0 -82 -49.5 -125t-131.5 -43q-78 0 -126 43t-48 125z" />
<glyph unicode="&#x3c;" horiz-adv-x="1232" d="M61 545v299l1069 379v-301l-716 -228l716 -229v-301z" />
<glyph unicode="=" horiz-adv-x="1150" d="M133 373v235h885v-235h-885zM133 776v234h885v-234h-885z" />
<glyph unicode="&#x3e;" horiz-adv-x="1232" d="M102 164v301l717 229l-717 228v301l1069 -379v-299z" />
<glyph unicode="?" horiz-adv-x="1056" d="M70 1323q205 139 434 139q188 0 328.5 -98t140.5 -291q0 -92 -37 -160.5t-90 -107.5t-106.5 -71t-90.5 -70.5t-37 -88.5v-86h-288v97q0 90 48 158.5t104 102.5t104.5 84t48.5 109.5t-40 91t-108 31.5q-111 0 -299 -98zM289 141q0 88 50 130t136 42t136.5 -42t50.5 -130 q0 -170 -186.5 -170t-186.5 170z" />
<glyph unicode="@" horiz-adv-x="1902" d="M61 528q0 391 259.5 642t701.5 251q383 0 601 -191.5t218 -516.5q0 -254 -131 -403.5t-340 -149.5q-203 0 -235 145q-90 -141 -293 -141q-164 0 -253 100.5t-89 257.5q0 188 106.5 323.5t296.5 135.5q147 0 236 -92l22 76h252l-92 -510q-2 -10 -2 -31q0 -78 84 -78 q100 0 156.5 106.5t56.5 262.5q0 266 -164 394t-436 128q-348 0 -538.5 -194.5t-190.5 -510.5q0 -299 169 -442t457 -143q209 0 449 80l22 -179q-252 -82 -464 -81q-430 0 -644.5 208.5t-214.5 552.5zM764 530q0 -164 141 -163q57 0 97 27.5t57.5 71.5t24 81t6.5 74 q-1 159 -140 159q-74 0 -119 -48t-56 -98t-11 -104z" />
<glyph unicode="A" horiz-adv-x="1550" d="M0 0l537 1434h479l534 -1434h-383l-106 301h-582l-106 -301h-373zM582 592h374l-184 522h-4z" />
<glyph unicode="B" horiz-adv-x="1449" d="M156 0v1434h700q481 0 481 -381q0 -72 -21.5 -129.5t-48 -89t-64.5 -55t-56.5 -31t-36.5 -11.5q104 -18 192.5 -102t88.5 -236q0 -193 -126 -296t-327 -103h-782zM530 285h338q74 0 117 44t43 109q0 68 -44 113t-116 45h-338v-311zM530 862h306q68 0 106.5 39t38.5 100.5 t-39.5 104.5t-105.5 43h-306v-287z" />
<glyph unicode="C" horiz-adv-x="1415" d="M74 713q0 360 224 554.5t576 194.5q268 0 453 -90l-94 -272q-139 65 -287 65h-4q-246 0 -359.5 -121.5t-113.5 -328.5t113.5 -327t347.5 -120q152 0 336 74l75 -276q-211 -94 -487 -95q-348 0 -564 194.5t-216 547.5z" />
<glyph unicode="D" horiz-adv-x="1554" d="M156 0v1434h645q188 0 352 -91q326 -193 330 -620q0 -197 -83 -369t-247 -264q-154 -90 -352 -90h-645zM530 291h179q186 0 282 104q96 106 96 330q0 240 -122 340q-94 78 -256 78h-179v-852z" />
<glyph unicode="E" horiz-adv-x="1337" d="M156 0v1434h1079v-291h-705v-295h611v-291h-611v-266h715v-291h-1089z" />
<glyph unicode="F" horiz-adv-x="1253" d="M156 0v1434h1048v-291h-674v-322h580v-291h-580v-530h-374z" />
<glyph unicode="G" horiz-adv-x="1519" d="M74 721q0 356 215.5 548.5t580.5 192.5q305 0 502 -110l-102 -273q-80 35 -120 49.5t-98.5 26.5t-123.5 12q-240 0 -349.5 -118.5t-109.5 -323.5q0 -201 104.5 -329t303.5 -128q135 0 247 60v190h-329v270h630v-608q-227 -209 -579 -209q-338 0 -555 193.5t-217 556.5z " />
<glyph unicode="H" horiz-adv-x="1628" d="M156 0v1434h374v-586h568v586h375v-1434h-375v555h-568v-555h-374z" />
<glyph unicode="I" horiz-adv-x="677" d="M152 0v1434h374v-1434h-374z" />
<glyph unicode="J" horiz-adv-x="1136" d="M-4 227l211 203q43 -53 64.5 -77.5t73.5 -54.5t114 -30q172 0 172 224v942h375v-936q0 -258 -139.5 -392.5t-391.5 -134.5q-94 0 -177 27t-136 63.5t-92 74.5t-58 65z" />
<glyph unicode="K" horiz-adv-x="1505" d="M156 0v1434h374v-603l527 603h438l-504 -566l514 -868h-461l-323 567l-191 -213l-2 -354h-372z" />
<glyph unicode="L" horiz-adv-x="1226" d="M156 0v1434h374v-1137h664v-297h-1038z" />
<glyph unicode="M" horiz-adv-x="1994" d="M156 0v1434h542l314 -902l295 902h532v-1434h-375v539l23 473h-4l-320 -908h-332l-319 908h-4l22 -473v-539h-374z" />
<glyph unicode="N" horiz-adv-x="1609" d="M156 0v1434h389l534 -828v828h375v-1434h-387l-537 854v-854h-374z" />
<glyph unicode="O" horiz-adv-x="1660" d="M74 717q0 332 201.5 538.5t556 206.5t555 -206.5t200.5 -538.5q0 -334 -200.5 -540t-555 -206t-556 206t-201.5 540zM469 715q0 -217 95 -332t267.5 -115t266.5 115t94 332q0 215 -94 332.5t-266.5 117.5t-267.5 -117.5t-95 -332.5z" />
<glyph unicode="P" horiz-adv-x="1441" d="M156 0v1434h745q231 0 365.5 -148.5t134.5 -345.5q0 -213 -132 -354.5t-364 -141.5h-375v-444h-374zM530 735h267q100 0 160.5 52.5t60.5 150.5q0 90 -61.5 147.5t-159.5 57.5h-267v-408z" />
<glyph unicode="Q" horiz-adv-x="1662" d="M74 717q0 332 201.5 538.5t556 206.5t555 -206.5t200.5 -538.5q0 -225 -95 -397.5t-271 -262.5q137 -51 368 -94l-92 -293q-141 31 -268 80t-187.5 83t-138.5 84t-86 54h-8q-344 8 -539.5 213t-195.5 533zM469 715q0 -211 95 -325t267.5 -114t266.5 114t94 325 q0 215 -94 332.5t-266.5 117.5t-267.5 -117.5t-95 -332.5z" />
<glyph unicode="R" horiz-adv-x="1462" d="M156 0v1434h757q236 0 366 -134.5t130 -336.5q0 -145 -72.5 -255t-208.5 -165l254 -543h-395l-209 510h-248v-510h-374zM530 801h310q88 0 138 47t50 120.5t-49 124t-139 50.5h-310v-342z" />
<glyph unicode="S" horiz-adv-x="1314" d="M66 104l100 291q246 -121 473 -121q225 0 225 111q0 68 -59.5 98.5t-202.5 65.5q-68 16 -107.5 26.5t-101 32t-98.5 43t-81 56t-68.5 75.5t-41 98.5t-16.5 127.5q0 121 46 211t126 141t177 76.5t212 25.5q143 0 298 -35.5t267 -93.5l-106 -282l-27 14q-27 12 -43 19.5 t-50 21.5t-64.5 22.5t-71.5 17.5t-85 14t-91 5q-199 0 -199 -116q0 -47 40 -79t73 -42t121 -31q14 -4 22 -6q129 -31 211 -60.5t158 -81t111.5 -129t35.5 -186.5q0 -233 -163.5 -348t-438.5 -115q-156 0 -314.5 35t-266.5 98z" />
<glyph unicode="T" horiz-adv-x="1331" d="M35 1143v291h1261v-291h-444v-1143h-375v1143h-442z" />
<glyph unicode="U" horiz-adv-x="1497" d="M113 557v877h374v-887q0 -135 74 -207t191 -72q113 0 185.5 72t72.5 207v887h374v-877q0 -279 -170 -432.5t-464 -153.5q-305 0 -471 159t-166 427z" />
<glyph unicode="V" horiz-adv-x="1445" d="M0 1434h408l317 -1002l319 1002h402l-510 -1434h-426z" />
<glyph unicode="W" horiz-adv-x="2095" d="M10 1434h406l141 -582q16 -72 36.5 -179.5t33.5 -178.5l10 -72h4l213 1012h387l213 -1012h4q41 270 80 430l143 582h404l-387 -1434h-461l-190 885l-189 -885h-461z" />
<glyph unicode="X" horiz-adv-x="1488" d="M2 1434h469l277 -428l290 428h426l-487 -682l510 -752h-483l-269 430l-274 -430h-447l494 690z" />
<glyph unicode="Y" horiz-adv-x="1384" d="M-14 1434h391l315 -578l316 578h391l-518 -885v-549h-375v545z" />
<glyph unicode="Z" horiz-adv-x="1314" d="M68 0v240l698 909l-356 -6h-304v291h1123v-238l-701 -913l336 8h365v-291h-1161z" />
<glyph unicode="[" horiz-adv-x="698" d="M147 -369v1831h465v-266h-180v-1298h180v-267h-465z" />
<glyph unicode="\" horiz-adv-x="1054" d="M59 1499h287l651 -1577h-286z" />
<glyph unicode="]" horiz-adv-x="700" d="M86 -102h180v1298h-180v266h465v-1831h-465v267z" />
<glyph unicode="_" horiz-adv-x="1261" d="M123 -76h1016v-241h-1016v241z" />
<glyph unicode="`" horiz-adv-x="763" d="M174 1477h324l170 -303h-256z" />
<glyph unicode="a" d="M49 305q0 193 132 268.5t384 75.5q39 0 174 -8v53q0 70 -50 96.5t-144 26.5q-168 0 -381 -59l-49 262q231 65 497 65q231 0 353 -81.5t122 -294.5v-373q0 -70 60 -70q14 0 57 6l19 -239q-102 -43 -226 -43q-162 0 -223 121q-96 -131 -344 -131q-184 0 -282.5 81.5 t-98.5 243.5zM406 324q0 -61 35.5 -83t103.5 -22q84 0 139 38t55 122v47q-72 6 -139 6q-115 0 -154.5 -28.5t-39.5 -79.5z" />
<glyph unicode="b" horiz-adv-x="1316" d="M117 0v1499h348v-547q106 133 317 133q236 0 360 -158.5t124 -398.5q0 -231 -122 -389.5t-360 -158.5q-236 0 -340 155l-28 -135h-299zM457 528q0 -135 61.5 -208.5t163.5 -73.5q111 0 170 72.5t59 209.5q0 291 -229 291q-104 0 -164.5 -74.5t-60.5 -216.5z" />
<glyph unicode="c" horiz-adv-x="1054" d="M51 532.5q0 264.5 166 408.5t436 144q215 0 357 -79l-84 -236q-117 49 -217 49q-162 0 -232.5 -82t-70.5 -207q0 -123 71.5 -204.5t241.5 -81.5q106 0 229 51l60 -244q-148 -71 -347 -71h-6q-272 0 -438 144t-166 408.5z" />
<glyph unicode="d" horiz-adv-x="1310" d="M51 528q0 240 124 398.5t360 158.5q211 0 317 -133v547h348v-1499h-299l-31 135q-101 -155 -335 -155h-3q-238 0 -359.5 158.5t-121.5 389.5zM406 528q0 -137 59 -209.5t170 -72.5q102 0 163.5 73.5t61.5 208.5q0 141 -60.5 216t-164.5 75q-229 0 -229 -291z" />
<glyph unicode="e" horiz-adv-x="1196" d="M51 526q0 256 149.5 407.5t415.5 151.5q240 0 379.5 -132t139.5 -378l-11 -149h-718q2 -178 282 -178q166 0 356 80l62 -250q-209 -98 -455 -98q-295 0 -447.5 141t-152.5 405zM416 645h393q0 174 -182 174q-88 0 -139.5 -35.5t-71.5 -138.5z" />
<glyph unicode="f" horiz-adv-x="854" d="M10 819v246h191v74q0 195 80.5 288t287.5 93q127 0 277 -29l-33 -250q-90 16 -158 16q-106 0 -106 -106v-86h262v-246h-262v-819h-348v819h-191z" />
<glyph unicode="g" horiz-adv-x="1228" d="M178 70q-98 63 -98 180q0 129 113 201q-100 96 -101 254q0 186 135 283t375 97q104 0 189 -20h407v-236h-149q59 -72 59 -167q0 -147 -135 -241.5t-371 -94.5q-119 0 -217 24q-16 -20 -14 -41q2 -71 221 -71h6h188q156 0 261.5 -64.5t105.5 -204.5q0 -338 -551 -338 q-534 0 -534 255q0 118 110 184zM360 -49q0 -45 54.5 -60.5t193.5 -15.5q123 0 179.5 13.5t56.5 54.5t-82 41h-129q-147 0 -248 16q-25 -20 -25 -49zM436 704.5q0 -71.5 46 -106.5t120 -35t120 35t46 106.5t-46 106.5t-120 35t-120 -35t-46 -106.5z" />
<glyph unicode="h" horiz-adv-x="1255" d="M117 0v1499h348v-553q115 139 307 139q78 0 137.5 -14t120 -53t92 -123t31.5 -209v-686h-348v643q0 176 -148 176q-94 0 -143 -73.5t-49 -184.5v-561h-348z" />
<glyph unicode="i" horiz-adv-x="645" d="M41 819v246h479v-1065h-348v819h-131zM146 1343.5q0 157.5 180 157.5q186 0 186 -157.5t-186 -157.5q-180 0 -180 157.5z" />
<glyph unicode="j" horiz-adv-x="657" d="M10 -371l2 283h62q63 0 88.5 23.5t25.5 91.5v792h-151v246h500v-1083q0 -115 -29 -189t-88.5 -107.5t-119.5 -45t-150 -11.5h-140zM152 1343.5q0 157.5 180 157.5q186 0 186 -157.5t-186 -157.5q-180 0 -180 157.5z" />
<glyph unicode="k" horiz-adv-x="1204" d="M117 0v1499h348v-842l358 408h381l-387 -420l371 -645h-389l-213 395l-121 -133v-262h-348z" />
<glyph unicode="l" horiz-adv-x="661" d="M102 248v1251h349v-1186q0 -67 79 -67h2q23 0 89 4l10 -250q-123 -20 -223 -20q-305 0 -306 268z" />
<glyph unicode="m" horiz-adv-x="1855" d="M115 0v1065h303l20 -150q92 170 291 170q205 0 281 -186q129 186 362 186q373 0 373 -413v-672h-348v666q0 153 -133 153h-2q-158 0 -158 -207v-612h-348v664q0 155 -131 155h-2q-82 0 -121 -55t-39 -139v-625h-348z" />
<glyph unicode="n" horiz-adv-x="1261" d="M115 0v1065h305l18 -147q121 167 332 167q78 0 137.5 -14t119.5 -53t92 -123t32 -209v-686h-348v643q0 176 -148 176q-94 0 -143 -73.5t-49 -184.5v-561h-348z" />
<glyph unicode="o" horiz-adv-x="1257" d="M51 534.5q0 262.5 153.5 406.5t424 144t424 -144t153.5 -406.5t-154.5 -408.5t-423 -146t-423 146t-154.5 408.5zM406 530q0 -285 222 -285l1 1q223 0 223 284q0 289 -223 289t-223 -289z" />
<glyph unicode="p" horiz-adv-x="1316" d="M117 -348v1413h299l28 -135q104 155 340 155q238 0 360 -158.5t122 -389.5q0 -240 -124 -398.5t-360 -158.5q-213 0 -317 131v-459h-348zM457 537q0 -141 60.5 -216t164.5 -75q229 0 229 291q0 137 -59 209.5t-170 72.5q-102 0 -163.5 -73.5t-61.5 -208.5z" />
<glyph unicode="q" horiz-adv-x="1314" d="M51 537q0 231 121.5 389.5t359.5 158.5q236 0 338 -155l31 135h299v-1413h-348v459q-104 -131 -317 -131q-236 0 -360 158.5t-124 398.5zM406 537q0 -291 229 -291q104 0 164.5 74.5t60.5 216.5q0 135 -61.5 208.5t-163.5 73.5q-111 0 -170 -72.5t-59 -209.5z" />
<glyph unicode="r" horiz-adv-x="858" d="M115 0v1065h288l27 -240q33 96 118 170t212 74q38 0 61 -4l-14 -350q-35 6 -66 6q-139 0 -208.5 -102.5t-69.5 -258.5v-360h-348z" />
<glyph unicode="s" horiz-adv-x="1026" d="M57 78l74 235q205 -88 348 -88q145 0 146 70q0 23 -10.5 37t-35 24.5t-47 15.5t-64.5 14t-71 17q-59 16 -95 28.5t-88 39.5t-82 59.5t-52.5 87t-22.5 123.5q0 178 127 261t326 83q219 0 434 -84l-63 -229q-193 70 -316 70q-145 0 -145 -68q0 -14 3 -25.5t13 -20.5 t20.5 -14t32 -12.5t38 -11.5t50 -13t58.5 -15q59 -16 99 -30t92.5 -41.5t84 -60t54 -86t22.5 -120.5q0 -121 -69.5 -201t-170 -111.5t-229.5 -31.5q-223 0 -461 98z" />
<glyph unicode="t" horiz-adv-x="847" d="M20 819v246h138l53 307h295v-307h278v-246h-278v-473q0 -117 100 -117q86 0 172 31l17 -233q-123 -47 -283 -47q-166 0 -260 76.5t-94 281.5v481h-138z" />
<glyph unicode="u" horiz-adv-x="1239" d="M88 379v686h348v-643q0 -176 146 -176q94 0 144 73.5t50 184.5v561h348v-1065h-305l-20 147q-118 -167 -328 -167h-2q-78 0 -137.5 14t-119.5 53t-92 123t-32 209z" />
<glyph unicode="v" horiz-adv-x="1153" d="M0 1065h356l226 -729l225 729h346l-377 -1065h-401z" />
<glyph unicode="w" horiz-adv-x="1744" d="M31 1065h360l133 -664l193 664h311l193 -668l135 668h358l-270 -1065h-393l-179 590l-178 -590h-393z" />
<glyph unicode="x" horiz-adv-x="1212" d="M35 0l362 524l-358 541h393l186 -291l201 291h355l-351 -502l367 -563h-387l-199 319l-209 -319h-360z" />
<glyph unicode="y" horiz-adv-x="1255" d="M27 1065h387l241 -655l213 655h361l-404 -1116q-63 -180 -155 -243.5t-246 -63.5q-158 0 -281 22l13 264q111 -16 180 -16q100 0 125 61l12 31z" />
<glyph unicode="z" horiz-adv-x="1099" d="M82 0v266l551 559l-438 -6h-99v246h922v-272l-541 -555l381 8h160v-246h-936z" />
<glyph unicode="{" horiz-adv-x="718" d="M68 455v209q39 0 55 2t29.5 16t13.5 43v387q0 59 5 102t24.5 93.5t52.5 81t94 52t147 21.5h148v-256h-121q-70 0 -70 -69v-13v-432q0 -117 -127 -135q127 -8 127 -131v-436v-13q0 -70 70 -69h121v-256h-148q-86 0 -147 21.5t-94 52t-52.5 80t-24.5 91.5t-5 99v399 q0 39 -22.5 49.5t-75.5 10.5z" />
<glyph unicode="|" horiz-adv-x="571" d="M145 -336v1942h281v-1942h-281z" />
<glyph unicode="}" horiz-adv-x="718" d="M82 -92h121q70 0 69 69v13v436q0 123 127 131q-127 18 -127 135v432v13q0 70 -69 69h-121v256h147q86 0 147.5 -21.5t94.5 -52t52.5 -81t24.5 -93.5t5 -102v-387q0 -29 13.5 -43t29.5 -16t55 -2v-209q-37 0 -54 -3t-30.5 -16.5t-13.5 -40.5v-399q0 -57 -5 -99 t-24.5 -91.5t-52.5 -80t-94.5 -52t-147.5 -21.5h-147v256z" />
<glyph unicode="&#xa1;" horiz-adv-x="661" d="M121 -377l69 944h285l66 -944h-420zM141 915q0 170 186.5 170t186.5 -170q0 -88 -50 -130t-136 -42t-136.5 42t-50.5 130z" />
<glyph unicode="&#xa2;" horiz-adv-x="1142" d="M74 696.5q0 233.5 127 373.5t348 171v176h190v-172q139 -12 267 -74l-70 -237q-119 49 -209 49q-299 0 -299 -286.5t299 -286.5q117 0 229 43l58 -240q-131 -57 -275 -68v-165h-190v172q-221 31 -348 171t-127 373.5z" />
<glyph unicode="&#xa3;" horiz-adv-x="1251" d="M82 0v252q6 0 17.5 3t41 19.5t51 40t40 71.5t18.5 110q0 45 -6 96h-113v186h84q-16 98 -16 193q0 221 150.5 356t402.5 135q236 0 403 -131l-139 -241q-123 88 -246 88q-104 0 -157.5 -56.5t-53.5 -138.5q0 -86 19 -205h462v-186h-434q4 -41 4 -57q0 -88 -40 -163 t-95 -102h668v-270h-1061z" />
<glyph unicode="&#xa5;" horiz-adv-x="1492" d="M63 1434h383l304 -549l303 549h383l-504 -863v-49h219v-151h-219v-78h219v-152h-219v-141h-365v141h-219v152h219v78h-219v151h219v49z" />
<glyph unicode="&#xa7;" d="M74 537q0 76 40 151.5t95 120.5q-111 94 -111 248q0 182 140 279.5t380 97.5q250 0 474 -103l-105 -266q-184 70 -338 70q-43 0 -75.5 -11.5t-48 -28t-21.5 -30.5t-6 -25q0 -14 4 -25t13 -21.5t18.5 -18.5t27 -15.5t31.5 -12.5t37.5 -12t39 -11t44 -11.5t45.5 -11.5 q74 -18 113.5 -30.5t101 -42t94.5 -62.5t58.5 -90.5t25.5 -130.5q0 -76 -41 -152t-96 -121q113 -96 112 -247q0 -182 -140 -279.5t-380 -97.5q-250 0 -473 102l105 266q184 -70 337 -69q43 0 76 11t48.5 27.5t21.5 31t6 24.5q0 18 -6 31.5t-21.5 26t-28 20.5t-42 16 t-45 13.5t-54 14.5t-55.5 13q-80 20 -115.5 31.5t-102.5 42.5t-98.5 63.5t-58 91t-26.5 132.5zM387 594q0 -33 21.5 -58.5t67.5 -45t89 -34t114 -34t116 -35.5q43 51 43 100q0 33 -21.5 57.5t-68 44t-90.5 34t-114.5 35t-115.5 36.5q-41 -53 -41 -100z" />
<glyph unicode="&#xa8;" horiz-adv-x="1181" d="M158 1323q0 76 44 117t126 41q176 0 176 -158t-176 -158q-82 0 -126 41t-44 117zM680 1323q0 158 168 158q176 0 176 -158t-176 -158q-168 0 -168 158z" />
<glyph unicode="&#xa9;" horiz-adv-x="1617" d="M90 718.5q0 317.5 209 516.5t516 199t516 -199t209 -516.5t-211 -518t-514 -200.5t-514 200.5t-211 518zM231 717q0 -258 168 -416t416 -158t416 158t168 416t-169 415.5t-415 157.5t-415 -157.5t-169 -415.5zM412 717q0 195 119.5 301t316.5 106q137 0 252 -57l-51 -174 q-94 37 -160 37q-117 0 -166 -60.5t-49 -152.5q0 -211 219 -211q84 0 170 33l43 -177q-119 -53 -262 -53q-195 0 -313.5 107.5t-118.5 300.5z" />
<glyph unicode="&#xaa;" horiz-adv-x="1021" d="M135 383v209h752v-209h-752zM135 918q0 119 83 181t233 62q68 0 122 -6v29q0 94 -120 94q-86 0 -213 -39l-45 197q155 45 321 45q147 0 223 -69t76 -195v-295q0 -33 33 -33l39 2v-182q-68 -23 -144 -23q-135 0 -151 98q-70 -98 -195 -98q-262 0 -262 232zM350 932 q0 -39 26.5 -64.5t72.5 -25.5q51 0 87.5 31.5t36.5 99.5v45q-47 6 -84 6q-139 0 -139 -92z" />
<glyph unicode="&#xab;" horiz-adv-x="1425" d="M74 498v69l450 506l181 -182l-265 -359l265 -358l-181 -182zM707 498v69l450 506l180 -182l-264 -359l264 -358l-180 -182z" />
<glyph unicode="&#xad;" horiz-adv-x="1019" d="M125 408v258h770v-258h-770z" />
<glyph unicode="&#xae;" horiz-adv-x="1167" d="M117 1042q0 203 130 334t337 131q209 0 339 -131t130 -334q0 -201 -130 -331.5t-339 -130.5q-207 0 -337 131t-130 331zM219 1042.5q0 -163.5 95.5 -266t269.5 -102.5q176 0 271 102.5t95 266t-95 268t-271 104.5q-174 0 -269.5 -104.5t-95.5 -268zM387 807v491h236 q78 0 124 -47t46 -118q0 -111 -84 -148l79 -178h-137l-59 158h-78v-158h-127zM514 1073h90q37 0 53.5 17.5t16.5 39.5q0 62 -76 62h-84v-119z" />
<glyph unicode="&#xaf;" horiz-adv-x="987" d="M164 1204v197h659v-197h-659z" />
<glyph unicode="&#xb0;" horiz-adv-x="636" d="M41 1194q0 137 80.5 198.5t197.5 61.5q119 0 198 -61.5t79 -196.5q0 -133 -80 -196.5t-197 -63.5q-115 0 -196.5 63.5t-81.5 194.5zM197 1194q0 -117 122 -117q121 0 121 117q0 119 -121 119q-123 0 -122 -119z" />
<glyph unicode="&#xb1;" horiz-adv-x="1175" d="M82 2v227h1014v-227h-1014zM82 604v258h362v326h267v-326h383v-258h-383v-305h-267v305h-362z" />
<glyph unicode="&#xb4;" horiz-adv-x="761" d="M174 1174l170 303h324l-238 -303h-256z" />
<glyph unicode="&#xb5;" horiz-adv-x="1269" d="M115 -348v1413h348v-639q0 -80 46 -130t132 -50q88 0 127 49t39 127v643h348v-1065h-264l-39 111q-57 -139 -215 -140q-117 0 -176 60v-379h-346z" />
<glyph unicode="&#xb6;" horiz-adv-x="1409" d="M72 956q0 127 42 223.5t112.5 149.5t147.5 79t158 26h703v-1608h-252v1350h-211v-1350h-258v659h-29h-4q-199 0 -304 130t-105 341z" />
<glyph unicode="&#xb7;" horiz-adv-x="643" d="M106 625q0 90 58.5 152.5t154.5 62.5q102 0 160 -61.5t58 -153.5q0 -94 -57.5 -156.5t-160.5 -62.5q-96 0 -154.5 63t-58.5 156z" />
<glyph unicode="&#xb8;" horiz-adv-x="694" d="M139 -399l25 118q61 -25 139 -24q68 0 68 45q0 47 -72 47q-16 0 -45 -4l-47 61l67 195h177l-48 -141h9q37 0 68.5 -9.5t60 -47.5t28.5 -101q0 -176 -239 -176q-121 0 -191 37z" />
<glyph unicode="&#xba;" horiz-adv-x="1095" d="M147 383v209h801v-209h-801zM147 1079q0 193 106.5 297.5t293 104.5t293 -104.5t106.5 -297.5q0 -182 -109.5 -282.5t-289.5 -100.5t-290 100.5t-110 282.5zM408 1092q0 -174 139 -174t139 174q0 165 -139 165t-139 -165z" />
<glyph unicode="&#xbb;" horiz-adv-x="1425" d="M88 174l264 358l-264 359l180 182l451 -506v-69l-451 -506zM721 174l264 358l-264 359l180 182l451 -506v-69l-451 -506z" />
<glyph unicode="&#xbf;" horiz-adv-x="1040" d="M76 -16q0 92 37 160.5t90 107.5t106 70.5t90 70.5t37 88v86h289v-96q0 -90 -48 -158.5t-104.5 -102.5t-104.5 -84t-48 -109.5t40 -91t107 -31.5q111 0 299 98l113 -258q-205 -139 -434 -140q-188 0 -328.5 98.5t-140.5 291.5zM387 915q0 170 186.5 170t186.5 -170 q0 -88 -50.5 -130t-136.5 -42t-136 42t-50 130z" />
<glyph unicode="&#xc0;" horiz-adv-x="1550" d="M0 0l537 1434h479l534 -1434h-383l-106 301h-582l-106 -301h-373zM494 1786h323l170 -244h-256zM582 592h374l-184 522h-4z" />
<glyph unicode="&#xc1;" horiz-adv-x="1550" d="M0 0l537 1434h479l534 -1434h-383l-106 301h-582l-106 -301h-373zM582 592h374l-184 522h-4zM653 1542l170 244h324l-238 -244h-256z" />
<glyph unicode="&#xc2;" horiz-adv-x="1550" d="M0 0l537 1434h479l534 -1434h-383l-106 301h-582l-106 -301h-373zM391 1542l240 244h315l240 -244h-262l-136 139l-133 -139h-264zM582 592h374l-184 522h-4z" />
<glyph unicode="&#xc3;" horiz-adv-x="1550" d="M0 0l537 1434h479l534 -1434h-383l-106 301h-582l-106 -301h-373zM416 1599q70 229 241 230q51 0 142 -45q98 -51 133 -51q14 0 26.5 4t20.5 8t16.5 15.5t11.5 15.5t11 19t8 17l111 -51q-70 -229 -242 -229q-47 0 -141 45q-8 4 -32 16.5t-36 17.5t-31.5 11t-34 6 t-26.5 -4t-20.5 -8t-16.5 -15.5t-11 -15.5t-11.5 -19.5t-8.5 -17.5zM582 592h374l-184 522h-4z" />
<glyph unicode="&#xc4;" horiz-adv-x="1550" d="M0 0l537 1434h479l534 -1434h-383l-106 301h-582l-106 -301h-373zM350 1681.5q0 149.5 158 149.5q164 0 164 -149.5t-164 -149.5q-158 0 -158 149.5zM582 592h374l-184 522h-4zM872 1681.5q0 149.5 156 149.5q164 0 164 -149.5t-164 -149.5q-156 0 -156 149.5z" />
<glyph unicode="&#xc5;" horiz-adv-x="1550" d="M0 0l537 1434h479l534 -1434h-383l-106 301h-582l-106 -301h-373zM508 1761q0 117 74.5 178.5t185.5 61.5q113 0 187.5 -60.5t74.5 -179.5t-74.5 -180t-187.5 -61q-111 0 -185.5 61t-74.5 180zM582 592h374l-184 522h-4zM670 1759q0 -109 98 -108q41 0 70.5 24.5 t29.5 83.5q0 107 -100 107q-98 0 -98 -107z" />
<glyph unicode="&#xc6;" horiz-adv-x="2170" d="M0 0l743 1434h1325v-291h-704v-297h610v-291h-610v-264h715v-291h-1090v330h-434l-166 -330h-389zM707 627h282v516h-20z" />
<glyph unicode="&#xc7;" horiz-adv-x="1415" d="M74 713q0 360 224 554.5t576 194.5q268 0 453 -90l-94 -272q-141 66 -291 65q-246 0 -359.5 -121.5t-113.5 -328.5t113.5 -327t347.5 -120q152 0 336 74l75 -276q-201 -92 -475 -95l-24 -73h8q37 0 68.5 -9.5t60.5 -47.5t29 -101q0 -176 -240 -176q-121 0 -190 37l24 118 q61 -25 139 -24q68 0 68 45q0 47 -72 47q-16 0 -45 -4l-47 61l47 140q-283 43 -450.5 231t-167.5 498z" />
<glyph unicode="&#xc8;" horiz-adv-x="1337" d="M156 0v1434h1079v-291h-705v-295h611v-291h-611v-266h715v-291h-1089zM397 1786h324l170 -244h-256z" />
<glyph unicode="&#xc9;" horiz-adv-x="1337" d="M156 0v1434h1079v-291h-705v-295h611v-291h-611v-266h715v-291h-1089zM557 1542l170 244h324l-238 -244h-256z" />
<glyph unicode="&#xca;" horiz-adv-x="1337" d="M156 0v1434h1079v-291h-705v-295h611v-291h-611v-266h715v-291h-1089zM295 1542l240 244h315l240 -244h-263l-135 139l-133 -139h-264z" />
<glyph unicode="&#xcb;" horiz-adv-x="1337" d="M156 0v1434h1079v-291h-705v-295h611v-291h-611v-266h715v-291h-1089zM278 1675.5q0 149.5 158 149.5q164 0 164 -149.5t-164 -149.5q-158 0 -158 149.5zM800 1675.5q0 149.5 156 149.5q164 0 164 -149.5t-164 -149.5q-156 0 -156 149.5z" />
<glyph unicode="&#xcc;" horiz-adv-x="677" d="M61 1786h324l170 -244h-256zM152 0v1434h374v-1434h-374z" />
<glyph unicode="&#xcd;" horiz-adv-x="677" d="M152 0v1434h374v-1434h-374zM221 1542l170 244h324l-238 -244h-256z" />
<glyph unicode="&#xce;" horiz-adv-x="677" d="M-41 1542l240 244h315l240 -244h-262l-136 139l-133 -139h-264zM152 0v1434h374v-1434h-374z" />
<glyph unicode="&#xcf;" horiz-adv-x="677" d="M-82 1681.5q0 149.5 158 149.5q164 0 164 -149.5t-164 -149.5q-158 0 -158 149.5zM152 0v1434h374v-1434h-374zM440 1681.5q0 149.5 156 149.5q164 0 164 -149.5t-164 -149.5q-156 0 -156 149.5z" />
<glyph unicode="&#xd0;" horiz-adv-x="1554" d="M-10 602v205h166v627h645q188 0 352 -91q326 -193 330 -620q0 -197 -83 -369t-247 -264q-154 -90 -352 -90h-645v602h-166zM530 291h179q186 0 282 104q96 106 96 330q0 240 -122 340q-94 78 -256 78h-179v-336h205v-205h-205v-311z" />
<glyph unicode="&#xd1;" horiz-adv-x="1609" d="M156 0v1434h389l534 -828v828h375v-1434h-387l-537 854v-854h-374zM451 1599q70 229 241 230q51 0 142 -45q98 -51 133 -51q14 0 26.5 4t20.5 8t16 15.5t11 15.5t11.5 19t8.5 17l110 -51q-70 -229 -241 -229q-47 0 -142 45q-8 4 -31.5 16.5t-35.5 17.5t-31.5 11t-34 6 t-27 -4t-20.5 -8t-16 -15.5t-11 -15.5t-11.5 -19.5t-8.5 -17.5z" />
<glyph unicode="&#xd2;" horiz-adv-x="1660" d="M74 717q0 332 201.5 538.5t556 206.5t555 -206.5t200.5 -538.5q0 -334 -200.5 -540t-555 -206t-556 206t-201.5 540zM469 715q0 -217 95 -332t267.5 -115t266.5 115t94 332q0 215 -94 332.5t-266.5 117.5t-267.5 -117.5t-95 -332.5zM555 1786h324l170 -244h-256z" />
<glyph unicode="&#xd3;" horiz-adv-x="1660" d="M74 717q0 332 201.5 538.5t556 206.5t555 -206.5t200.5 -538.5q0 -334 -200.5 -540t-555 -206t-556 206t-201.5 540zM469 715q0 -217 95 -332t267.5 -115t266.5 115t94 332q0 215 -94 332.5t-266.5 117.5t-267.5 -117.5t-95 -332.5zM653 1542l170 244h324l-238 -244h-256 z" />
<glyph unicode="&#xd4;" horiz-adv-x="1660" d="M74 717q0 332 201.5 538.5t556 206.5t555 -206.5t200.5 -538.5q0 -334 -200.5 -540t-555 -206t-556 206t-201.5 540zM453 1542l239 244h316l239 -244h-262l-135 139l-133 -139h-264zM469 715q0 -217 95 -332t267.5 -115t266.5 115t94 332q0 215 -94 332.5t-266.5 117.5 t-267.5 -117.5t-95 -332.5z" />
<glyph unicode="&#xd5;" horiz-adv-x="1660" d="M74 717q0 332 201.5 538.5t556 206.5t555 -206.5t200.5 -538.5q0 -334 -200.5 -540t-555 -206t-556 206t-201.5 540zM469 715q0 -217 95 -332t267.5 -115t266.5 115t94 332q0 215 -94 332.5t-266.5 117.5t-267.5 -117.5t-95 -332.5zM477 1599q70 229 242 230 q51 0 141 -45q96 -51 133 -51q14 0 26.5 4t21 8t16.5 15.5t11 15.5t11 19t8 17l111 -51q-70 -229 -242 -229q-47 0 -141 45q-8 4 -31.5 16.5t-36 17.5t-32 11t-33.5 6t-26.5 -4t-20.5 -8t-16.5 -15.5t-11.5 -15.5t-11 -19.5t-8 -17.5z" />
<glyph unicode="&#xd6;" horiz-adv-x="1660" d="M74 717q0 332 201.5 538.5t556 206.5t555 -206.5t200.5 -538.5q0 -334 -200.5 -540t-555 -206t-556 206t-201.5 540zM411 1681.5q0 149.5 158 149.5q164 0 164 -149.5t-164 -149.5q-158 0 -158 149.5zM469 715q0 -217 95 -332t267.5 -115t266.5 115t94 332 q0 215 -94 332.5t-266.5 117.5t-267.5 -117.5t-95 -332.5zM934 1681.5q0 149.5 156 149.5q164 0 163.5 -149.5t-163.5 -149.5q-156 0 -156 149.5z" />
<glyph unicode="&#xd7;" horiz-adv-x="1157" d="M72 369l325 325l-325 326l178 182l328 -328l329 328l178 -182l-327 -326l327 -325l-178 -183l-329 328l-328 -328z" />
<glyph unicode="&#xd8;" horiz-adv-x="1660" d="M74 717q0 332 201.5 538.5t555.5 206.5q195 0 345 -65l67 102h225l-131 -201q250 -205 250 -581q0 -334 -200.5 -540t-555.5 -206q-178 0 -327 58l-72 -111h-223l131 201q-266 203 -266 598zM469 715q0 -184 68 -295l462 706q-74 39 -168 39q-172 0 -267 -117.5 t-95 -332.5zM680 295q61 -27 151 -27q172 0 266.5 115t94.5 332q0 164 -57 274z" />
<glyph unicode="&#xd9;" horiz-adv-x="1497" d="M113 557v877h374v-887q0 -135 74 -207t191 -72q113 0 185.5 72t72.5 207v887h374v-877q0 -279 -170 -432.5t-464 -153.5q-305 0 -471 159t-166 427zM473 1786h324l170 -244h-256z" />
<glyph unicode="&#xda;" horiz-adv-x="1497" d="M113 557v877h374v-887q0 -135 74 -207t191 -72q113 0 185.5 72t72.5 207v887h374v-877q0 -279 -170 -432.5t-464 -153.5q-305 0 -471 159t-166 427zM633 1542l170 244h323l-237 -244h-256z" />
<glyph unicode="&#xdb;" horiz-adv-x="1497" d="M113 557v877h374v-887q0 -135 74 -207t191 -72q113 0 185.5 72t72.5 207v887h374v-877q0 -279 -170 -432.5t-464 -153.5q-305 0 -471 159t-166 427zM371 1542l239 244h316l239 -244h-262l-135 139l-133 -139h-264z" />
<glyph unicode="&#xdc;" horiz-adv-x="1497" d="M113 557v877h374v-887q0 -135 74 -207t191 -72q113 0 185.5 72t72.5 207v887h374v-877q0 -279 -170 -432.5t-464 -153.5q-305 0 -471 159t-166 427zM329 1681.5q0 149.5 158 149.5q164 0 164 -149.5t-164 -149.5q-158 0 -158 149.5zM852 1681.5q0 149.5 156 149.5 q164 0 163.5 -149.5t-163.5 -149.5q-156 0 -156 149.5z" />
<glyph unicode="&#xdd;" horiz-adv-x="1384" d="M-14 1434h391l315 -578l316 578h391l-518 -885v-549h-375v545zM506 1542l170 244h323l-237 -244h-256z" />
<glyph unicode="&#xde;" horiz-adv-x="1447" d="M156 0v1434h374v-232h392q231 0 358 -138t127 -335q0 -201 -125 -338t-354 -137h-398v-254h-374zM530 545h318q82 0 129 48t49 134q0 82 -49 133t-129 51h-318v-366z" />
<glyph unicode="&#xdf;" horiz-adv-x="1277" d="M117 0v958q0 98 26.5 184.5t83 160t159 116.5t241.5 43q246 0 362.5 -99t116.5 -259q0 -100 -50 -186.5t-50 -129.5t26.5 -82.5t65.5 -77.5t77.5 -82t65.5 -111.5t27 -149.5q0 -158 -102.5 -249t-297.5 -91q-156 0 -293 53l41 266q125 -47 187 -47q115 0 115 102 q0 51 -37 101.5t-80 87.5t-80 97.5t-37 127.5q0 74 58.5 162t58.5 147q0 61 -39 103.5t-117 42.5q-180 0 -180 -244v-944h-348z" />
<glyph unicode="&#xe0;" d="M49 305q0 193 132 268.5t384 75.5q39 0 174 -8v53q0 70 -50 96.5t-144 26.5q-168 0 -381 -59l-49 262q231 65 497 65q231 0 353 -81.5t122 -294.5v-373q0 -70 60 -70q14 0 57 6l19 -239q-102 -43 -226 -43q-162 0 -223 121q-96 -131 -344 -131q-184 0 -282.5 81.5 t-98.5 243.5zM293 1497h323l170 -303h-256zM406 324q0 -61 35.5 -83t103.5 -22q84 0 139 38t55 122v47q-72 6 -139 6q-115 0 -154.5 -28.5t-39.5 -79.5z" />
<glyph unicode="&#xe1;" d="M49 305q0 193 132 268.5t384 75.5q39 0 174 -8v53q0 70 -50 96.5t-144 26.5q-168 0 -381 -59l-49 262q231 65 497 65q231 0 353 -81.5t122 -294.5v-373q0 -70 60 -70q14 0 57 6l19 -239q-102 -43 -226 -43q-162 0 -223 121q-96 -131 -344 -131q-184 0 -282.5 81.5 t-98.5 243.5zM406 324q0 -61 35.5 -83t103.5 -22q84 0 139 38t55 122v47q-72 6 -139 6q-115 0 -154.5 -28.5t-39.5 -79.5zM475 1194l170 303h324l-238 -303h-256z" />
<glyph unicode="&#xe2;" d="M49 305q0 193 132 268.5t384 75.5q39 0 174 -8v53q0 70 -50 96.5t-144 26.5q-168 0 -381 -59l-49 262q231 65 497 65q231 0 353 -81.5t122 -294.5v-373q0 -70 60 -70q14 0 57 6l19 -239q-102 -43 -226 -43q-162 0 -223 121q-96 -131 -344 -131q-184 0 -282.5 81.5 t-98.5 243.5zM217 1194l240 305h315l240 -305h-262l-136 186l-133 -186h-264zM406 324q0 -61 35.5 -83t103.5 -22q84 0 139 38t55 122v47q-72 6 -139 6q-115 0 -154.5 -28.5t-39.5 -79.5z" />
<glyph unicode="&#xe3;" d="M49 305q0 193 132 268.5t384 75.5q39 0 174 -8v53q0 70 -50 96.5t-144 26.5q-168 0 -381 -59l-49 262q231 65 497 65q231 0 353 -81.5t122 -294.5v-373q0 -70 60 -70q14 0 57 6l19 -239q-102 -43 -226 -43q-162 0 -223 121q-96 -131 -344 -131q-184 0 -282.5 81.5 t-98.5 243.5zM240 1251q70 229 241 230q51 0 142 -45q98 -51 133 -52q14 0 26.5 4.5t20.5 8.5t16 15t11.5 15.5t11.5 19.5t8 17l111 -51q-70 -229 -242 -229q-47 0 -141 45l-32 16t-36 17.5t-31.5 11.5t-34 6t-26.5 -4t-20.5 -8t-16.5 -15.5t-11 -15.5t-11.5 -19.5 t-8.5 -17.5zM406 324q0 -61 35.5 -83t103.5 -22q84 0 139 38t55 122v47q-72 6 -139 6q-115 0 -154.5 -28.5t-39.5 -79.5z" />
<glyph unicode="&#xe4;" d="M49 305q0 193 132 268.5t384 75.5q39 0 174 -8v53q0 70 -50 96.5t-144 26.5q-168 0 -381 -59l-49 262q231 65 497 65q231 0 353 -81.5t122 -294.5v-373q0 -70 60 -70q14 0 57 6l19 -239q-102 -43 -226 -43q-162 0 -223 121q-96 -131 -344 -131q-184 0 -282.5 81.5 t-98.5 243.5zM164 1343.5q0 75.5 44 116.5t126 41q176 0 176 -157.5t-176 -157.5q-82 0 -126 41t-44 116.5zM406 324q0 -61 35.5 -83t103.5 -22q84 0 139 38t55 122v47q-72 6 -139 6q-115 0 -154.5 -28.5t-39.5 -79.5zM686 1343.5q0 157.5 168 157.5q176 0 176 -157.5 t-176 -157.5q-168 0 -168 157.5z" />
<glyph unicode="&#xe5;" d="M49 305q0 193 132 268.5t384 75.5q39 0 174 -8v53q0 70 -50 96.5t-144 26.5q-168 0 -381 -59l-49 262q231 65 497 65q231 0 353 -81.5t122 -294.5v-373q0 -70 60 -70q14 0 57 6l19 -239q-102 -43 -226 -43q-162 0 -223 121q-96 -131 -344 -131q-184 0 -282.5 81.5 t-98.5 243.5zM332 1413q0 117 74.5 178.5t185.5 61.5q113 0 187.5 -60.5t74.5 -179.5t-74.5 -180.5t-187.5 -61.5q-111 0 -185.5 61.5t-74.5 180.5zM406 324q0 -61 35.5 -83t103.5 -22q84 0 139 38t55 122v47q-72 6 -139 6q-115 0 -154.5 -28.5t-39.5 -79.5zM494 1411 q0 -109 98 -108q41 0 70.5 24.5t29.5 83.5q0 107 -100 107q-98 0 -98 -107z" />
<glyph unicode="&#xe6;" horiz-adv-x="1869" d="M49 305q0 193 132 268.5t384 75.5q74 0 168 -6q0 18 8 51q0 70 -51 96.5t-145 26.5q-168 0 -381 -59l-49 262q231 66 497 65q240 0 353 -81q132 81 325 81q240 0 379 -132t139 -378l-10 -149h-719q6 -98 72 -138t211 -40q184 0 356 71l62 -241q-209 -98 -455 -98 q-315 0 -467 174q-123 -174 -403 -174q-197 0 -301.5 81.5t-104.5 243.5zM406 324q0 -109 139 -109q190 0 196 154q-10 51 -10 63q-82 4 -125 4q-121 0 -160.5 -28.5t-39.5 -83.5zM1090 645h393q-1 174 -183 174q-86 0 -138 -37t-72 -137z" />
<glyph unicode="&#xe7;" horiz-adv-x="1054" d="M51 532q0 264 166 408.5t436 144.5q215 0 357 -79l-84 -236q-117 49 -217 49q-162 0 -232.5 -82t-70.5 -207q0 -123 71.5 -204.5t241.5 -81.5q106 0 229 51l60 -244q-150 -72 -353 -71h-2l-26 -82h8q37 0 68.5 -9.5t60.5 -47.5t29 -101q0 -176 -240 -176q-121 0 -191 37 l25 118q61 -25 139 -24q68 0 68 45q0 47 -72 47q-16 0 -45 -4l-47 61l53 154q-201 41 -316.5 178t-115.5 356z" />
<glyph unicode="&#xe8;" horiz-adv-x="1196" d="M51 526q0 256 149.5 407.5t415.5 151.5q240 0 379.5 -132t139.5 -378l-11 -149h-718q2 -178 282 -178q166 0 356 80l62 -250q-209 -98 -455 -98q-295 0 -447.5 141t-152.5 405zM340 1497h324l170 -303h-256zM416 645h393q0 174 -182 174q-88 0 -139.5 -35.5t-71.5 -138.5 z" />
<glyph unicode="&#xe9;" horiz-adv-x="1196" d="M51 526q0 256 149.5 407.5t415.5 151.5q240 0 379.5 -132t139.5 -378l-11 -149h-718q2 -178 282 -178q166 0 356 80l62 -250q-209 -98 -455 -98q-295 0 -447.5 141t-152.5 405zM408 1194l170 303h323l-237 -303h-256zM416 645h393q0 174 -182 174q-88 0 -139.5 -35.5 t-71.5 -138.5z" />
<glyph unicode="&#xea;" horiz-adv-x="1196" d="M51 526q0 256 149.5 407.5t415.5 151.5q240 0 379.5 -132t139.5 -378l-11 -149h-718q2 -178 282 -178q166 0 356 80l62 -250q-209 -98 -455 -98q-295 0 -447.5 141t-152.5 405zM238 1194l239 305h316l239 -305h-262l-135 186l-133 -186h-264zM416 645h393q0 174 -182 174 q-88 0 -139.5 -35.5t-71.5 -138.5z" />
<glyph unicode="&#xeb;" horiz-adv-x="1196" d="M51 526q0 256 149.5 407.5t415.5 151.5q240 0 379.5 -132t139.5 -378l-11 -149h-718q2 -178 282 -178q166 0 356 80l62 -250q-209 -98 -455 -98q-295 0 -447.5 141t-152.5 405zM184 1343.5q0 75.5 44 116.5t126 41q176 0 176 -157.5t-176 -157.5q-82 0 -126 41t-44 116.5 zM416 645h393q0 174 -182 174q-88 0 -139.5 -35.5t-71.5 -138.5zM706 1343.5q0 157.5 168 157.5q176 0 176.5 -157.5t-176.5 -157.5q-168 0 -168 157.5z" />
<glyph unicode="&#xec;" horiz-adv-x="661" d="M23 1497h323l170 -303h-256zM57 819v246h480v-1065h-349v819h-131z" />
<glyph unicode="&#xed;" horiz-adv-x="661" d="M57 819v246h480v-1065h-349v819h-131zM215 1194l170 303h324l-238 -303h-256z" />
<glyph unicode="&#xee;" horiz-adv-x="661" d="M-47 1194l240 305h315l240 -305h-263l-135 186l-133 -186h-264zM57 819v246h480v-1065h-349v819h-131z" />
<glyph unicode="&#xef;" horiz-adv-x="661" d="M-100 1343.5q0 75.5 44 116.5t126 41q176 0 176 -157.5t-176 -157.5q-82 0 -126 41t-44 116.5zM57 819v246h480v-1065h-349v819h-131zM422 1343.5q0 157.5 168 157.5q176 0 176 -157.5t-176 -157.5q-168 0 -168 157.5z" />
<glyph unicode="&#xf0;" horiz-adv-x="1241" d="M51 498q0 236 140.5 374t353.5 138q172 0 280 -86q-27 88 -84 182q-45 70 -106 137l-166 -115l-76 105l152 104q-82 78 -211 174l211 144q113 -74 219 -164l149 104l74 -108l-129 -90q326 -346 326 -793q0 -307 -149.5 -465.5t-422.5 -158.5q-262 0 -411.5 140 t-149.5 378zM408 498q0 -260 208 -260q207 0 207 260q0 252 -207 252q-209 0 -208 -252z" />
<glyph unicode="&#xf1;" horiz-adv-x="1261" d="M115 0v1065h305l18 -147q121 167 332 167q78 0 137.5 -14t119.5 -53t92 -123t32 -209v-686h-348v643q0 176 -148 176q-94 0 -143 -73.5t-49 -184.5v-561h-348zM276 1251q70 229 242 230q51 0 141 -45q98 -51 134 -52q14 0 26 4.5t20.5 8.5t16.5 15t11 15.5t11.5 19.5 t8.5 17l110 -51q-70 -229 -241 -229q-47 0 -142 45q-8 4 -31.5 16t-35.5 17.5t-31.5 11.5t-34 6t-27 -4t-20.5 -8t-16 -15.5t-11.5 -15.5t-11.5 -19.5t-8 -17.5z" />
<glyph unicode="&#xf2;" horiz-adv-x="1257" d="M51 534.5q0 262.5 153.5 406.5t424 144t424 -144t153.5 -406.5t-154.5 -408.5t-423 -146t-423 146t-154.5 408.5zM352 1497h324l170 -303h-256zM406 530q0 -285 223 -284.5t223 284.5q0 289 -223 289t-223 -289z" />
<glyph unicode="&#xf3;" horiz-adv-x="1257" d="M51 534.5q0 262.5 153.5 406.5t424 144t424 -144t153.5 -406.5t-154.5 -408.5t-423 -146t-423 146t-154.5 408.5zM406 530q0 -285 223 -284.5t223 284.5q0 289 -223 289t-223 -289zM412 1194l170 303h323l-237 -303h-256z" />
<glyph unicode="&#xf4;" horiz-adv-x="1257" d="M51 534.5q0 262.5 153.5 406.5t424 144t424 -144t153.5 -406.5t-154.5 -408.5t-423 -146t-423 146t-154.5 408.5zM250 1194l239 305h316l239 -305h-262l-135 186l-133 -186h-264zM406 530q0 -285 223 -284.5t223 284.5q0 289 -223 289t-223 -289z" />
<glyph unicode="&#xf5;" horiz-adv-x="1257" d="M51 534.5q0 262.5 153.5 406.5t424 144t424 -144t153.5 -406.5t-154.5 -408.5t-423 -146t-423 146t-154.5 408.5zM274 1251q70 229 242 230q51 0 141 -45q98 -51 134 -52q14 0 26 4.5t20.5 8.5t16.5 15t11 15.5t11.5 19.5t8.5 17l110 -51q-70 -229 -241 -229 q-47 0 -142 45q-8 4 -31.5 16t-36 17.5t-31.5 11.5t-33.5 6t-27 -4t-20.5 -8t-16 -15.5t-11.5 -15.5t-11.5 -19.5t-8 -17.5zM406 530q0 -285 223 -284.5t223 284.5q0 289 -223 289t-223 -289z" />
<glyph unicode="&#xf6;" horiz-adv-x="1257" d="M51 534.5q0 262.5 153.5 406.5t424 144t424 -144t153.5 -406.5t-154.5 -408.5t-423 -146t-423 146t-154.5 408.5zM197 1343.5q0 75.5 44 116.5t126 41q176 0 176 -157.5t-176 -157.5q-82 0 -126 41t-44 116.5zM406 530q0 -285 223 -284.5t223 284.5q0 289 -223 289 t-223 -289zM719 1343.5q0 157.5 168 157.5q176 0 176 -157.5t-176 -157.5q-168 0 -168 157.5z" />
<glyph unicode="&#xf7;" horiz-adv-x="1189" d="M100 573v224h990v-224h-990zM434 309q0 78 47 117t119 39q70 0 116 -39t46 -117t-46 -118.5t-116 -40.5q-72 0 -119 41.5t-47 117.5zM434 1065q0 78 47 117t119 39q70 0 116 -39t46 -117t-46 -119t-116 -41q-72 0 -119 41t-47 119z" />
<glyph unicode="&#xf8;" horiz-adv-x="1257" d="M51 535q0 262 154 406t424 144q127 0 231 -34l55 84h160l-92 -140q223 -145 223 -460q0 -262 -154.5 -408.5t-422.5 -146.5q-154 0 -279 51l-65 -101h-160l111 168q-184 145 -185 437zM406 530q0 -86 18 -143l278 422q-36 10 -73 10q-223 0 -223 -289zM510 274 q47 -29 119 -28q223 -1 223 284q0 125 -43 199z" />
<glyph unicode="&#xf9;" horiz-adv-x="1239" d="M88 379v686h348v-643q0 -176 146 -176q94 0 144 73.5t50 184.5v561h348v-1065h-305l-20 147q-119 -168 -330 -167q-78 0 -137.5 14t-119.5 53t-92 123t-32 209zM326 1497h323l170 -303h-256z" />
<glyph unicode="&#xfa;" horiz-adv-x="1239" d="M88 379v686h348v-643q0 -176 146 -176q94 0 144 73.5t50 184.5v561h348v-1065h-305l-20 147q-119 -168 -330 -167q-78 0 -137.5 14t-119.5 53t-92 123t-32 209zM485 1194l170 303h324l-238 -303h-256z" />
<glyph unicode="&#xfb;" horiz-adv-x="1239" d="M88 379v686h348v-643q0 -176 146 -176q94 0 144 73.5t50 184.5v561h348v-1065h-305l-20 147q-119 -168 -330 -167q-78 0 -137.5 14t-119.5 53t-92 123t-32 209zM223 1194l240 305h315l240 -305h-262l-135 186l-134 -186h-264z" />
<glyph unicode="&#xfc;" horiz-adv-x="1239" d="M88 379v686h348v-643q0 -176 146 -176q94 0 144 73.5t50 184.5v561h348v-1065h-305l-20 147q-119 -168 -330 -167q-78 0 -137.5 14t-119.5 53t-92 123t-32 209zM170 1343.5q0 75.5 44 116.5t126 41q176 0 176 -157.5t-176 -157.5q-82 0 -126 41t-44 116.5zM692 1343.5 q0 157.5 168 157.5q176 0 176 -157.5t-176 -157.5q-168 0 -168 157.5z" />
<glyph unicode="&#xfd;" horiz-adv-x="1239" d="M27 1065h387l241 -655l213 655h361l-404 -1116q-63 -180 -155 -243.5t-246 -63.5q-158 0 -281 22l13 264q111 -16 180 -16q100 0 125 61l12 31zM487 1194l170 303h324l-238 -303h-256z" />
<glyph unicode="&#xfe;" horiz-adv-x="1316" d="M117 -350v1784h348v-478q106 129 319 129q238 0 360 -158.5t122 -389.5q0 -240 -124 -398.5t-360 -158.5q-213 0 -317 131v-461h-348zM457 537q0 -141 60.5 -216t164.5 -75q229 0 229 291q0 137 -59 209.5t-170 72.5q-102 0 -163.5 -73.5t-61.5 -208.5z" />
<glyph unicode="&#xff;" horiz-adv-x="1239" d="M27 1065h387l241 -655l213 655h361l-404 -1116q-63 -180 -155 -243.5t-246 -63.5q-158 0 -281 22l13 264q111 -16 180 -16q100 0 125 61l12 31zM184 1343.5q0 75.5 44 116.5t126 41q176 0 176 -157.5t-176 -157.5q-82 0 -126 41t-44 116.5zM706 1343.5q0 157.5 168 157.5 q176 0 176.5 -157.5t-176.5 -157.5q-168 0 -168 157.5z" />
<glyph unicode="&#x152;" horiz-adv-x="2420" d="M74 717q0 332 201.5 538.5t555.5 206.5q229 0 408 -119v91h1079v-291h-704v-295h610v-291h-610v-266h715v-291h-1090v92q-182 -121 -408 -121q-354 0 -555.5 206t-201.5 540zM469 715q0 -217 95 -332t267.5 -115t266.5 115t94 332q0 215 -94 332.5t-266.5 117.5 t-267.5 -117.5t-95 -332.5z" />
<glyph unicode="&#x153;" horiz-adv-x="2045" d="M51 534.5q0 262.5 153.5 406.5t424.5 144q272 0 426 -147q152 147 411 147q240 0 379.5 -132t139.5 -378l-11 -149h-719q2 -178 283 -178q166 0 356 80l62 -250q-209 -98 -455 -98q-299 0 -450 145q-152 -145 -422 -145q-268 0 -423 146t-155 408.5zM406 530 q0 -285 223 -284.5t223 284.5q0 289 -223 289t-223 -289zM1266 645h393q0 174 -182 174q-88 0 -139.5 -35.5t-71.5 -138.5z" />
<glyph unicode="&#x178;" horiz-adv-x="1384" d="M-14 1434h391l315 -578l316 578h391l-518 -885v-549h-375v545zM272 1681.5q0 149.5 158 149.5q164 0 164 -149.5t-164 -149.5q-158 0 -158 149.5zM794 1681.5q0 149.5 156 149.5q164 0 164 -149.5t-164 -149.5q-156 0 -156 149.5z" />
<glyph unicode="&#x2c6;" horiz-adv-x="1134" d="M170 1174l240 305h315l240 -305h-263l-135 186l-133 -186h-264z" />
<glyph unicode="&#x2dc;" horiz-adv-x="1048" d="M164 1231q70 229 242 229q51 0 141 -45q96 -51 133 -51q14 0 26.5 4t20.5 8t16.5 15.5t11.5 15.5t11 19.5t8 17.5l111 -51q-70 -229 -242 -230q-47 0 -141 45q-8 4 -32 16.5t-36 17.5t-31.5 11.5t-34 6.5t-26.5 -4.5t-20.5 -8.5t-16.5 -15t-11 -15.5t-11.5 -19.5 t-8.5 -17z" />
<glyph unicode="&#x2000;" horiz-adv-x="1000" />
<glyph unicode="&#x2001;" horiz-adv-x="2001" />
<glyph unicode="&#x2002;" horiz-adv-x="1000" />
<glyph unicode="&#x2003;" horiz-adv-x="2001" />
<glyph unicode="&#x2004;" horiz-adv-x="667" />
<glyph unicode="&#x2005;" horiz-adv-x="500" />
<glyph unicode="&#x2006;" horiz-adv-x="333" />
<glyph unicode="&#x2007;" horiz-adv-x="333" />
<glyph unicode="&#x2008;" horiz-adv-x="250" />
<glyph unicode="&#x2009;" horiz-adv-x="400" />
<glyph unicode="&#x200a;" horiz-adv-x="111" />
<glyph unicode="&#x2010;" horiz-adv-x="1019" d="M125 408v258h770v-258h-770z" />
<glyph unicode="&#x2011;" horiz-adv-x="1019" d="M125 408v258h770v-258h-770z" />
<glyph unicode="&#x2012;" horiz-adv-x="1019" d="M125 408v258h770v-258h-770z" />
<glyph unicode="&#x2013;" horiz-adv-x="1454" d="M125 406v258h1204v-256z" />
<glyph unicode="&#x2014;" horiz-adv-x="1994" d="M125 408v258h1745v-258h-1745z" />
<glyph unicode="&#x2018;" horiz-adv-x="589" d="M106 1063q0 236 275 367l72 -115q-154 -74 -177 -187q18 23 60 23q70 0 108.5 -39t38.5 -112.5t-48 -121t-130 -47.5q-90 0 -144.5 61.5t-54.5 170.5z" />
<glyph unicode="&#x2019;" horiz-adv-x="589" d="M106 1261.5q0 73.5 48.5 121t130.5 47.5q90 0 144 -61.5t54 -170.5q0 -236 -274 -367l-72 115q154 76 176 184q-20 -20 -59 -20q-70 0 -109 39t-39 112.5z" />
<glyph unicode="&#x201a;" horiz-adv-x="589" d="M106 151.5q0 73.5 48.5 120.5t130.5 47q90 0 144 -61t54 -170q0 -236 -274 -367l-72 115q154 74 176 184q-20 -20 -59 -20q-70 0 -109 39t-39 112.5z" />
<glyph unicode="&#x201c;" horiz-adv-x="1075" d="M106 1063q1 236 275 367l72 -115q-156 -78 -179 -187q23 23 62 23q70 0 108.5 -39t38.5 -112.5t-48 -121t-130 -47.5q-90 0 -144.5 61.5t-54.5 170.5zM592 1063q0 236 274 367l72 -115q-156 -78 -178 -187q23 23 61 23q70 0 109 -39t39 -112.5t-48.5 -121t-129.5 -47.5 q-90 0 -144.5 61.5t-54.5 170.5z" />
<glyph unicode="&#x201d;" horiz-adv-x="1075" d="M106 1261.5q0 73.5 48.5 121t130.5 47.5q90 0 144 -61.5t54 -170.5q0 -236 -274 -367l-72 115q152 74 174 184q-20 -20 -57 -20q-70 0 -109 39t-39 112.5zM592 1261.5q0 73.5 48 121t130 47.5q90 0 144.5 -61.5t54.5 -170.5q0 -236 -275 -367l-71 115q154 76 176 184 q-20 -20 -60 -20q-70 0 -108.5 39t-38.5 112.5z" />
<glyph unicode="&#x201e;" horiz-adv-x="1075" d="M106 151.5q0 73.5 48.5 120.5t130.5 47q90 0 144 -61t54 -170q0 -236 -274 -367l-72 115q152 74 174 184q-20 -20 -57 -20q-70 0 -109 39t-39 112.5zM592 151.5q0 73.5 48 120.5t130 47q90 0 144.5 -61t54.5 -170q0 -236 -275 -367l-71 115q152 74 174 184 q-20 -20 -58 -20q-70 0 -108.5 39t-38.5 112.5z" />
<glyph unicode="&#x2022;" horiz-adv-x="1015" d="M205 700.5q0 135.5 86 214t217 78.5t217 -77.5t86 -215t-86 -215t-217 -77.5t-217 78.5t-86 214z" />
<glyph unicode="&#x2026;" horiz-adv-x="1628" d="M113 131q0 78 49 123t125 45q80 0 130 -45t50 -123q0 -82 -49 -125t-131 -43q-78 0 -126 43t-48 125zM637 131q0 78 49 123t125 45q80 0 130 -45t50 -123q0 -82 -49 -125t-131 -43q-78 0 -126 43t-48 125zM1161 131q0 78 49 123t125 45q80 0 130.5 -45t50.5 -123 q0 -82 -49.5 -125t-131.5 -43q-78 0 -126 43t-48 125z" />
<glyph unicode="&#x202f;" horiz-adv-x="400" />
<glyph unicode="&#x2039;" horiz-adv-x="792" d="M74 489v76l452 506l179 -182l-246 -359l243 -364l-176 -180z" />
<glyph unicode="&#x203a;" horiz-adv-x="792" d="M88 889l178 182l453 -506v-76l-453 -503l-176 180l244 364z" />
<glyph unicode="&#x205f;" horiz-adv-x="500" />
<glyph unicode="&#x20ac;" horiz-adv-x="1603" d="M82 487l57 160h135q-2 20 -2 66q0 39 2 59h-178l58 160h143q59 258 259 394t491 136q260 0 460 -98l-102 -268q-141 66 -303 65q-307 0 -397 -229h565l-58 -160h-542q-2 -20 -2 -63t2 -62h493l-57 -160h-401q92 -215 389 -215q84 0 148.5 15.5t174.5 56.5l2 -291 q-168 -82 -393 -82q-285 0 -476.5 133.5t-252.5 382.5h-215z" />
<glyph unicode="&#x2122;" horiz-adv-x="1671" d="M123 1262v172h622v-172h-223v-480h-182v480h-217zM815 782v652h172l184 -414l181 414h172v-652h-172v312l-119 -267h-123l-121 267v-312h-174z" />
<glyph unicode="&#x25fc;" horiz-adv-x="1064" d="M0 0v1065h1065v-1065h-1065z" />
</font>
</defs>
</svg>
